<?xml version="1.0" standalone="no"?>
<!DOCTYPE svg PUBLIC "-//W3C//DTD SVG 20010904//EN"
 "http://www.w3.org/TR/2001/REC-SVG-20010904/DTD/svg10.dtd">
<svg version="1.0" xmlns="http://www.w3.org/2000/svg"
 width="260.000000pt" height="260.000000pt" viewBox="0 0 260.000000 260.000000"
 preserveAspectRatio="xMidYMid meet">
<metadata>
Created by potrace 1.14, written by Peter Selinger 2001-2017
</metadata>
<g transform="translate(0.000000,260.000000) scale(0.100000,-0.100000)"
fill="#000000" stroke="none">
<path d="M1195 1654 c-269 -47 -476 -257 -522 -530 -16 -94 -16 -107 -1 -200
22 -131 67 -226 154 -321 36 -40 70 -73 76 -73 7 0 40 -18 74 -41 35 -22 96
-53 136 -67 66 -24 86 -27 218 -27 140 0 148 1 225 32 119 48 245 155 314 266
11 18 34 68 53 112 31 78 32 84 32 220 -1 134 -2 144 -32 218 -95 233 -272
376 -508 412 -116 17 -115 17 -219 -1z m282 -55 c90 -25 172 -70 235 -127 28
-26 55 -51 59 -57 82 -98 127 -199 137 -307 14 -137 1 -231 -46 -329 -52 -108
-84 -148 -192 -237 -119 -97 -331 -139 -501 -98 -115 27 -193 71 -280 156 -43
43 -79 81 -79 85 0 4 -13 29 -29 55 -99 160 -96 408 7 583 39 68 168 201 204
212 13 4 30 13 38 20 16 14 165 61 215 69 51 7 161 -4 232 -25z"/>
<path d="M1310 1521 c0 -15 5 -28 13 -28 6 0 12 11 12 24 0 12 -6 25 -12 28
-9 3 -13 -5 -13 -24z"/>
<path d="M1252 1528 c-18 -18 -15 -34 6 -34 14 0 17 6 14 23 -5 27 -4 27 -20
11z"/>
<path d="M1388 1518 c4 -16 7 -18 10 -8 3 8 10 18 16 22 6 5 2 8 -11 8 -17 0
-20 -4 -15 -22z"/>
<path d="M1168 1505 c2 -14 8 -25 12 -25 4 0 5 11 2 25 -2 14 -8 25 -12 25 -4
0 -5 -11 -2 -25z"/>
<path d="M1449 1502 c-5 -30 -4 -31 15 -19 11 8 22 20 25 28 3 12 2 12 -12 1
-13 -11 -16 -10 -19 5 -3 11 -6 6 -9 -15z"/>
<path d="M1113 1513 c-10 -3 -9 -8 2 -20 8 -8 13 -19 10 -24 -4 -5 1 -9 10 -9
13 0 14 4 5 20 -6 11 -8 25 -5 30 7 11 -2 12 -22 3z"/>
<path d="M1506 1484 c-3 -9 0 -24 7 -35 13 -17 14 -16 13 16 -1 37 -10 46 -20
19z"/>
<path d="M1055 1480 c-5 -9 11 -50 20 -50 2 0 3 9 2 20 -1 11 -6 20 -12 20 -5
0 -3 5 5 10 9 6 10 10 3 10 -6 0 -15 -4 -18 -10z"/>
<path d="M1573 1463 c4 -3 0 -15 -10 -25 -21 -24 -8 -23 23 1 20 16 21 20 8
25 -21 8 -29 8 -21 -1z"/>
<path d="M984 1435 c-7 -17 12 -45 31 -45 16 0 26 25 19 45 -8 19 -43 19 -50
0z m42 -6 c3 -6 1 -16 -5 -22 -9 -9 -14 -8 -21 3 -9 15 -4 30 10 30 5 0 12 -5
16 -11z"/>
<path d="M1280 1402 c-19 -10 -34 -23 -33 -29 2 -7 -8 -24 -22 -39 -14 -15
-26 -40 -26 -58 -5 -98 8 -140 56 -192 32 -34 27 -39 -20 -20 -21 9 -52 16
-70 16 -29 0 -32 -2 -27 -25 3 -16 -2 -34 -14 -47 l-19 -22 29 18 c23 14 40
17 80 12 28 -4 67 -9 86 -11 22 -3 48 2 73 15 39 21 67 19 48 -4 -7 -8 -4 -16
11 -25 11 -7 18 -8 15 -4 -3 5 5 21 19 36 35 38 49 118 35 198 -14 82 -58 130
-142 155 -51 15 -56 19 -41 30 25 19 3 17 -38 -4z m180 -112 c0 -5 -7 -7 -15
-4 -8 4 -15 8 -15 10 0 2 7 4 15 4 8 0 15 -4 15 -10z"/>
<path d="M933 1393 c-23 -8 -14 -25 10 -18 14 4 18 3 9 -3 -11 -7 -10 -11 1
-20 11 -10 14 -7 13 15 -1 27 -11 35 -33 26z"/>
<path d="M1657 1366 c-16 -13 -16 -14 0 -27 10 -7 15 -9 10 -4 -4 4 0 17 10
27 19 21 6 24 -20 4z"/>
<path d="M887 1337 c-3 -9 4 -19 18 -25 22 -10 23 -9 16 10 -10 27 -27 34 -34
15z"/>
<path d="M1724 1264 c-10 -8 -13 -12 -5 -8 7 3 18 0 23 -7 8 -11 9 -10 4 4 -6
20 5 22 23 5 10 -11 11 -10 6 5 -9 21 -25 22 -51 1z"/>
<path d="M836 1230 c9 -33 10 -34 31 -25 15 6 15 8 3 13 -8 3 -21 12 -28 21
-11 14 -12 13 -6 -9z"/>
<path d="M1735 1201 c-3 -5 2 -17 11 -26 12 -12 19 -13 30 -4 19 16 18 18 -6
12 -22 -6 -28 12 -7 20 7 3 6 6 -5 6 -9 1 -19 -3 -23 -8z"/>
<path d="M830 1160 c0 -7 -7 -9 -16 -6 -8 3 -13 2 -10 -3 6 -9 56 -22 56 -14
0 2 -7 11 -15 19 -10 10 -15 11 -15 4z"/>
<path d="M1771 1141 c-20 -13 -5 -41 21 -40 l23 2 -22 4 c-13 2 -23 8 -23 12
0 4 10 13 23 19 13 6 16 11 7 11 -8 0 -21 -3 -29 -8z"/>
<path d="M1070 1120 c0 -5 5 -10 11 -10 5 0 7 5 4 10 -3 6 -8 10 -11 10 -2 0
-4 -4 -4 -10z"/>
<path d="M806 1101 c-4 -5 3 -7 14 -4 13 4 20 0 20 -9 0 -11 -8 -14 -27 -11
-22 4 -25 2 -13 -6 21 -15 47 -14 53 3 10 25 -33 50 -47 27z"/>
<path d="M1779 1068 c0 -2 -2 -11 -4 -21 -3 -14 0 -16 10 -7 9 8 15 8 20 0 3
-5 12 -10 18 -9 9 0 9 2 0 5 -7 3 -9 12 -6 20 3 9 -2 14 -16 14 -12 0 -21 -1
-22 -2z"/>
<path d="M796 1024 c-7 -19 10 -44 31 -44 19 0 28 27 13 45 -16 20 -36 19 -44
-1z m44 -20 c0 -16 -26 -19 -35 -4 -3 6 -4 14 0 20 8 13 35 1 35 -16z"/>
<path d="M1775 990 c4 -7 1 -16 -6 -21 -10 -6 -6 -9 14 -9 32 0 35 15 6 31
-17 8 -20 8 -14 -1z"/>
<path d="M1080 981 c0 -6 4 -13 10 -16 6 -3 7 1 4 9 -7 18 -14 21 -14 7z"/>
<path d="M845 950 c-3 -5 -12 -7 -20 -3 -8 3 -15 0 -15 -7 0 -6 5 -8 10 -5 6
3 10 2 10 -4 0 -5 -6 -12 -12 -15 -7 -3 -2 -4 11 -3 16 1 25 9 27 25 4 23 -1
29 -11 12z"/>
<path d="M1751 908 c1 -17 2 -19 6 -5 2 9 8 17 13 17 5 0 14 -8 20 -17 11 -17
11 -17 6 0 -3 10 -6 21 -6 23 0 2 -9 4 -20 4 -14 0 -20 -6 -19 -22z"/>
<path d="M848 884 c-4 -3 -4 -13 -1 -22 3 -13 1 -13 -11 2 -9 11 -16 15 -16
10 0 -12 21 -34 32 -34 4 0 8 10 9 23 0 21 1 21 10 2 8 -19 9 -19 6 -1 -2 20
-19 31 -29 20z"/>
<path d="M992 860 c0 -14 2 -19 5 -12 2 6 2 18 0 25 -3 6 -5 1 -5 -13z"/>
<path d="M1021 864 c0 -11 3 -14 6 -6 3 7 2 16 -1 19 -3 4 -6 -2 -5 -13z"/>
<path d="M1062 855 c0 -16 2 -22 5 -12 2 9 2 23 0 30 -3 6 -5 -1 -5 -18z"/>
<path d="M1130 870 c0 -5 5 -10 11 -10 5 0 7 5 4 10 -3 6 -8 10 -11 10 -2 0
-4 -4 -4 -10z"/>
<path d="M1457 872 c6 -4 13 -28 16 -52 l4 -45 1 53 c2 44 -1 52 -15 52 -12 0
-14 -3 -6 -8z"/>
<path d="M1550 868 c6 -7 10 -19 10 -27 0 -11 -4 -10 -16 5 -15 18 -15 18 -5
-2 6 -12 8 -23 6 -26 -3 -3 5 -13 17 -24 22 -17 22 -17 6 0 -13 15 -14 23 -5
37 9 15 8 22 -6 34 -9 8 -12 10 -7 3z"/>
<path d="M1582 860 c0 -14 2 -19 5 -12 2 6 2 18 0 25 -3 6 -5 1 -5 -13z"/>
<path d="M1622 860 c0 -14 2 -19 5 -12 2 6 2 18 0 25 -3 6 -5 1 -5 -13z"/>
<path d="M1735 870 c-3 -5 -1 -10 4 -10 6 0 11 5 11 10 0 6 -2 10 -4 10 -3 0
-8 -4 -11 -10z"/>
<path d="M1324 853 c11 -14 17 -32 14 -47 -3 -14 -1 -23 3 -20 17 10 9 51 -13
70 l-23 19 19 -22z"/>
<path d="M957 849 c7 -7 15 -10 18 -7 3 3 -2 9 -12 12 -14 6 -15 5 -6 -5z"/>
<path d="M1181 829 c-1 -30 3 -38 22 -42 19 -5 20 -5 5 6 -9 7 -18 26 -21 42
-4 28 -4 27 -6 -6z"/>
<path d="M1275 850 c27 -12 43 -12 25 0 -8 5 -22 9 -30 9 -10 0 -8 -3 5 -9z"/>
<path d="M1360 816 c0 -19 3 -37 8 -40 4 -2 6 13 4 35 -5 48 -12 51 -12 5z"/>
<path d="M1750 836 c14 -8 27 -12 29 -10 6 6 -1 11 -29 18 l-25 7 25 -15z"/>
<path d="M1425 830 l-30 -8 27 -1 c15 0 30 4 33 9 3 6 5 9 3 9 -2 -1 -16 -5
-33 -9z"/>
<path d="M873 823 c-22 -8 -14 -18 12 -18 14 0 25 3 25 6 0 10 -23 17 -37 12z"/>
<path d="M1701 802 c-9 -18 -9 -21 3 -16 8 3 17 1 21 -5 8 -14 25 -14 25 0 0
5 -5 7 -10 4 -6 -3 -14 4 -19 16 l-8 23 -12 -22z"/>
<path d="M1110 790 c20 -13 33 -13 25 0 -3 6 -14 10 -23 10 -15 0 -15 -2 -2
-10z"/>
<path d="M1290 790 c-23 -7 -23 -8 -3 -9 12 -1 25 4 28 9 3 6 5 10 3 9 -2 -1
-14 -5 -28 -9z"/>
<path d="M867 778 c2 -5 13 -8 24 -8 10 0 19 3 19 8 0 4 -11 7 -24 7 -13 0
-22 -3 -19 -7z"/>
<path d="M1068 783 c7 -3 16 -2 19 1 4 3 -2 6 -13 5 -11 0 -14 -3 -6 -6z"/>
<path d="M1403 783 c9 -2 25 -2 35 0 9 3 1 5 -18 5 -19 0 -27 -2 -17 -5z"/>
<path d="M845 740 c-4 -7 153 -10 465 -10 312 0 469 3 465 10 -8 14 -922 14
-930 0z"/>
<path d="M942 653 c2 -14 9 -28 16 -29 7 -1 8 0 2 3 -16 7 -12 43 5 43 9 0 15
-9 15 -24 0 -21 4 -23 48 -24 41 0 43 1 19 8 -16 5 -35 6 -43 3 -10 -4 -14 3
-14 21 0 21 -5 26 -26 26 -22 0 -25 -4 -22 -27z"/>
<path d="M1020 676 c0 -10 28 -13 41 -5 10 6 7 9 -13 9 -16 0 -28 -2 -28 -4z"/>
<path d="M1080 652 c0 -25 4 -28 33 -29 29 -1 32 2 32 28 0 16 -5 29 -11 29
-7 0 -10 -12 -7 -27 l4 -28 -16 28 c-20 35 -35 35 -35 -1z"/>
<path d="M1162 653 c2 -18 9 -28 21 -29 12 -1 13 -1 2 3 -21 6 -19 40 3 46 12
3 11 5 -6 6 -20 1 -23 -3 -20 -26z"/>
<path d="M1216 672 c7 -4 14 -18 17 -32 l4 -25 2 27 c0 14 7 29 14 31 6 3 -1
6 -18 6 -16 0 -25 -3 -19 -7z"/>
<path d="M1285 650 c-17 -32 -17 -34 -1 -21 15 13 19 13 27 0 7 -12 9 -12 8 1
0 8 -4 24 -8 35 -7 18 -10 16 -26 -15z"/>
<path d="M1360 665 c-14 -17 -6 -49 12 -43 6 2 12 12 14 21 1 9 -2 15 -7 11
-5 -3 -7 -10 -4 -15 4 -5 1 -9 -4 -9 -18 0 -13 28 7 39 9 6 12 11 6 11 -6 0
-17 -7 -24 -15z"/>
<path d="M1409 664 c-15 -18 -4 -44 18 -43 17 1 17 2 0 6 -10 3 -17 12 -15 21
5 27 25 24 33 -5 4 -15 9 -23 12 -16 2 7 11 9 19 6 8 -3 14 0 14 6 0 6 -7 11
-15 11 -18 0 -20 16 -2 23 6 3 -3 5 -21 4 -17 0 -37 -6 -43 -13z"/>
<path d="M1502 653 c2 -18 9 -28 21 -29 12 -1 13 -1 2 3 -24 7 -18 41 8 46 18
4 17 4 -6 6 -25 1 -28 -2 -25 -26z"/>
<path d="M1568 673 c7 -3 16 -2 19 1 4 3 -2 6 -13 5 -11 0 -14 -3 -6 -6z"/>
<path d="M1600 648 c0 -23 3 -29 9 -19 8 12 4 51 -5 51 -2 0 -4 -15 -4 -32z"/>
<path d="M1661 644 c-10 -24 -10 -26 2 -15 12 9 16 9 20 -1 4 -9 6 -9 6 2 0 8
-3 21 -7 28 -6 9 -12 5 -21 -14z"/>
<path d="M1570 630 c-9 -6 -10 -10 -3 -10 6 0 15 5 18 10 8 12 4 12 -15 0z"/>
<path d="M1042 540 c0 -19 2 -27 5 -17 2 9 2 25 0 35 -3 9 -5 1 -5 -18z"/>
<path d="M1090 555 c0 -9 6 -12 15 -9 8 4 15 7 15 9 0 2 -7 5 -15 9 -9 3 -15
0 -15 -9z"/>
<path d="M1131 543 c-1 -23 3 -33 14 -33 8 0 15 5 15 11 0 5 -4 8 -9 4 -5 -3
-12 7 -14 22 -4 26 -4 26 -6 -4z"/>
<path d="M1210 556 c0 -10 6 -13 15 -10 10 4 15 0 15 -11 0 -11 -5 -15 -15
-11 -8 3 -15 1 -15 -3 0 -5 16 -9 36 -8 20 1 32 3 25 5 -6 2 -11 13 -11 25 0
11 -3 17 -6 14 -4 -3 -15 -2 -25 4 -15 7 -19 6 -19 -5z"/>
<path d="M1278 548 c2 -11 8 -15 11 -9 4 6 12 6 20 2 11 -7 10 -11 -5 -20 -11
-6 -14 -11 -8 -11 12 0 40 28 33 33 -2 2 -16 8 -30 14 -24 11 -26 10 -21 -9z"/>
<path d="M1340 556 c0 -10 6 -13 15 -10 10 4 15 0 15 -11 0 -11 -5 -15 -15
-11 -8 3 -15 1 -15 -5 0 -17 34 -5 38 13 2 9 -6 22 -17 28 -17 9 -21 8 -21 -4z"/>
<path d="M1405 560 c-3 -5 -3 -15 1 -21 3 -6 0 -16 -7 -21 -12 -8 -11 -9 1 -5
8 2 15 16 16 30 1 29 -1 33 -11 17z"/>
<path d="M1447 553 c4 -11 3 -14 -5 -9 -17 10 -15 -2 2 -20 11 -10 15 -11 19
-1 5 16 -3 47 -14 47 -5 0 -5 -7 -2 -17z"/>
<path d="M1490 559 c0 -5 5 -7 10 -4 6 3 10 8 10 11 0 2 -4 4 -10 4 -5 0 -10
-5 -10 -11z"/>
<path d="M1596 561 c-4 -5 -3 -17 1 -27 5 -14 3 -16 -13 -10 -14 5 -16 4 -7
-5 16 -16 33 -2 31 26 -3 27 -4 29 -12 16z"/>
<path d="M1527 519 c7 -7 15 -10 18 -7 3 3 -2 9 -12 12 -14 6 -15 5 -6 -5z"/>
<path d="M1098 513 c7 -3 16 -2 19 1 4 3 -2 6 -13 5 -11 0 -14 -3 -6 -6z"/>
</g>
</svg>
